0
SECTION
2
HEADER
9
$INSUNITS
70
4
9
$ACADVER
1
AC1014
9
$HANDSEED
5
FFFF
0
ENDSEC
0
SECTION
2
TABLES
0
TABLE
2
VPORT
5
8
100
AcDbSymbolTable
0
ENDTAB
0
TABLE
2
LTYPE
5
5
100
AcDbSymbolTable
0
LTYPE
5
14
100
AcDbSymbolTableRecord
100
AcDbLinetypeTableRecord
2
BYBLOCK
70
0
0
LTYPE
5
15
100
AcDbSymbolTableRecord
100
AcDbLinetypeTableRecord
2
BYLAYER
70
0
0
ENDTAB
0
TABLE
2
LAYER
5
2
100
AcDbSymbolTable
70
2
0
LAYER
5
50
100
AcDbSymbolTableRecord
100
AcDbLayerTableRecord
2
0
70
0
6
CONTINUOUS
0
ENDTAB
0
TABLE
2
STYLE
5
3
100
AcDbSymbolTable
70
1
0
STYLE
5
11
100
AcDbSymbolTableRecord
100
AcDbTextStyleTableRecord
2
STANDARD
70
0
0
ENDTAB
0
TABLE
2
VIEW
5
6
100
AcDbSymbolTable
70
0
0
ENDTAB
0
TABLE
2
UCS
5
7
100
AcDbSymbolTable
70
0
0
ENDTAB
0
TABLE
2
APPID
5
9
100
AcDbSymbolTable
70
2
0
APPID
5
12
100
AcDbSymbolTableRecord
100
AcDbRegAppTableRecord
2
ACAD
70
0
0
ENDTAB
0
TABLE
2
DIMSTYLE
5
A
100
AcDbSymbolTable
70
1
0
ENDTAB
0
TABLE
2
BLOCK_RECORD
5
1
100
AcDbSymbolTable
70
1
0
BLOCK_RECORD
5
1F
100
AcDbSymbolTableRecord
100
AcDbBlockTableRecord
2
*MODEL_SPACE
0
BLOCK_RECORD
5
1B
100
AcDbSymbolTableRecord
100
AcDbBlockTableRecord
2
*PAPER_SPACE
0
ENDTAB
0
ENDSEC
0
SECTION
2
BLOCKS
0
BLOCK
5
20
100
AcDbEntity
100
AcDbBlockBegin
2
*MODEL_SPACE
0
ENDBLK
5
21
100
AcDbEntity
100
AcDbBlockEnd
0
BLOCK
5
1C
100
AcDbEntity
100
AcDbBlockBegin
2
*PAPER_SPACE
0
ENDBLK
5
1D
100
AcDbEntity
100
AcDbBlockEnd
0
ENDSEC
0
SECTION
2
ENTITIES
0
LINE
5
100
100
AcDbEntity
8
0
100
AcDbLine
10
-100
20
20
30
0
11
-100
21
-20
31
0
0
LINE
5
101
100
AcDbEntity
8
0
100
AcDbLine
10
-100
20
-20
30
0
11
-60
21
-20
31
0
0
ARC
5
102
100
AcDbEntity
8
0
100
AcDbCircle
10
-60
20
-30
30
0
40
10
210
0
220
0
230
1
100
AcDbArc
50
0
51
90
0
LINE
5
103
100
AcDbEntity
8
0
100
AcDbLine
10
-50
20
-30
30
0
11
-50
21
-46.746238251099157
31
0
0
ARC
5
104
100
AcDbEntity
8
0
100
AcDbCircle
10
-46.636285136952182
20
-46.746238251099157
30
0
40
3.3637148630478197
210
0
220
0
230
1
100
AcDbArc
50
180
51
269.55642912652314
0
LINE
5
105
100
AcDbEntity
8
0
100
AcDbLine
10
-46.662325991066552
20
-50.10985231246319
30
0
11
-0.23942215764151342
21
-50.46925503948156
31
0
0
ARC
5
106
100
AcDbEntity
8
0
100
AcDbCircle
10
-0.33619802718272807
20
-62.969485414413093
30
0
40
12.500604985171172
210
0
220
0
230
1
100
AcDbArc
50
-34.222903176205286
51
89.556429126523156
0
ARC
5
107
100
AcDbEntity
8
0
100
AcDbCircle
10
6.5475203799456549
20
-82.586161663666644
30
0
40
13.051095009647371
210
-0
220
0
230
1
100
AcDbArc
50
-47.284516811842693
51
74.660638403192124
0
LINE
5
108
100
AcDbEntity
8
0
100
AcDbLine
10
15.400838259848314
20
-92.175209763881725
30
0
11
10.585809739122368
21
-96.62079994648056
31
0
0
LINE
5
109
100
AcDbEntity
8
0
100
AcDbLine
10
10.585809739122368
20
-96.62079994648056
30
0
11
12.993323999485341
21
-99.228383945805803
31
0
0
LINE
5
110
100
AcDbEntity
8
0
100
AcDbLine
10
80
20
-90
30
0
11
86.582158364294472
21
-99.228383945805803
31
0
0
LINE
5
111
100
AcDbEntity
8
0
100
AcDbLine
10
86.582158364294472
20
-99.228383945805803
30
0
11
99.520630144794509
21
-90
31
0
0
LINE
5
112
100
AcDbEntity
8
0
100
AcDbLine
10
80
20
20
30
0
11
80
21
-10
31
0
0
SPLINE
5
113
100
AcDbEntity
8
0
100
AcDbSpline
70
12
71
2
41
1
41
3.0000000000000089
41
1
72
6
73
3
74
0
42
0.000000001
43
0.0000000001
44
0.0000000001
40
0
40
0
40
0
40
1.5904767002871569
40
1.5904767002871569
40
1.5904767002871569
10
80
20
-10
30
0
10
88.186349407561778
20
-16.26434202126573
30
0
10
80
20
-20
30
0
0
ARC
5
114
100
AcDbEntity
8
0
100
AcDbCircle
10
86.84491546735768
20
-35
30
0
40
16.487961297724844
210
0
220
0
230
1
100
AcDbArc
50
114.52852750705902
51
245.47147249294096
0
ARC
5
115
100
AcDbEntity
8
0
100
AcDbCircle
10
36.413639579934234
20
-96.034018043568608
30
0
40
63.394807609957063
210
0
220
-0
230
1
100
AcDbArc
50
5.461771021300919
51
46.56443880836963
0
LINE
5
116
100
AcDbEntity
8
0
100
AcDbLine
10
-44.999999999999993
20
-25
30
0
11
-45
21
-40
31
0
0
LINE
5
117
100
AcDbEntity
8
0
100
AcDbLine
10
-40
20
-45
30
0
11
-4.9999999999999991
21
-45
31
0
0
LINE
5
118
100
AcDbEntity
8
0
100
AcDbLine
10
0
20
-40
30
0
11
-5.5511151231257827e-16
21
-25
31
0
0
ARC
5
119
100
AcDbEntity
8
0
100
AcDbCircle
10
-40
20
-24.999999999999993
30
0
40
4.9999999999999911
210
0
220
-0
230
1
100
AcDbArc
50
90
51
180
0
ARC
5
120
100
AcDbEntity
8
0
100
AcDbCircle
10
-40
20
-40
30
0
40
5
210
0
220
-0
230
1
100
AcDbArc
50
180
51
270
0
ARC
5
121
100
AcDbEntity
8
0
100
AcDbCircle
10
-4.9999999999999964
20
-24.999999999999996
30
0
40
4.9999999999999956
210
-0
220
0
230
1
100
AcDbArc
50
0
51
90.000000000000043
0
ARC
5
122
100
AcDbEntity
8
0
100
AcDbCircle
10
-4.9999999999999956
20
-40
30
0
40
5
210
0
220
0
230
1
100
AcDbArc
50
-90.000000000000057
51
0
0
SPLINE
5
123
100
AcDbEntity
8
0
100
AcDbSpline
70
12
71
2
41
1
41
3
41
1
72
6
73
3
74
0
42
0.000000001
43
0.0000000001
44
0.0000000001
40
0
40
0
40
0
40
2.1152204081073034
40
2.1152204081073034
40
2.1152204081073034
10
-20
20
-20
30
0
10
-21.000000312924385
20
-36.000000536441803
30
0
10
-25
20
-40
30
0
0
SPLINE
5
124
100
AcDbEntity
8
0
100
AcDbSpline
70
12
71
2
41
1
41
3
41
1
72
6
73
3
74
0
42
0.000000001
43
0.0000000001
44
0.0000000001
40
0
40
0
40
0
40
2.2495038626019124
40
2.2495038626019124
40
2.2495038626019124
10
-9.9337949215978156
20
-20
30
0
10
-15.000000223517418
20
-38.000000566244125
30
0
10
-19.000000283122063
20
-40.000000596046448
30
0
0
SPLINE
5
125
100
AcDbEntity
8
0
100
AcDbSpline
70
12
71
2
41
1
41
3.0000000000000373
41
1
72
6
73
3
74
0
42
0.000000001
43
0.0000000001
44
0.0000000001
40
0
40
0
40
0
40
0.70584727780490553
40
0.70584727780490553
40
0.70584727780490553
10
-25
20
-40
30
0
10
-25
20
-41.909522372977399
30
0
10
-19.000000283122063
20
-40.000000596046448
30
0
0
LINE
5
126
100
AcDbEntity
8
0
100
AcDbLine
10
-40
20
-20
30
0
11
-20
21
-20
31
0
0
LINE
5
127
100
AcDbEntity
8
0
100
AcDbLine
10
-5
20
-20
30
0
11
-9.9337949215978156
21
-20
31
0
0
SPLINE
5
128
100
AcDbEntity
8
0
100
AcDbSpline
70
12
71
2
41
1
41
3.0000000000000178
41
1
72
6
73
3
74
0
42
0.000000001
43
0.0000000001
44
0.0000000001
40
0
40
0
40
0
40
1.6005206559615166
40
1.6005206559615166
40
1.6005206559615166
10
-100
20
20
30
0
10
-90
20
25
30
0
10
-85
20
25
30
0
0
LINE
5
129
100
AcDbEntity
8
0
100
AcDbLine
10
-85
20
25
30
0
11
-85
21
20
31
0
0
LINE
5
130
100
AcDbEntity
8
0
100
AcDbLine
10
60
20
20
30
0
11
60
21
25
31
0
0
LINE
5
131
100
AcDbEntity
8
0
100
AcDbLine
10
60
20
25
30
0
11
65
21
25
31
0
0
LINE
5
132
100
AcDbEntity
8
0
100
AcDbLine
10
65
20
25
30
0
11
70
21
20
31
0
0
LINE
5
133
100
AcDbEntity
8
0
100
AcDbLine
10
-85
20
20
30
0
11
60
21
20
31
0
0
LINE
5
134
100
AcDbEntity
8
0
100
AcDbLine
10
70
20
20
30
0
11
80
21
20
31
0
0
LINE
5
135
100
AcDbEntity
8
0
100
AcDbLine
10
245.29402677850669
20
151.62079994648059
30
0
11
247.70154103886966
21
154.2283839458058
31
0
0
SPLINE
5
136
100
AcDbEntity
8
0
100
AcDbSpline
70
12
71
2
41
1
41
3.0000000000000089
41
1
72
6
73
3
74
0
42
0.000000001
43
0.0000000001
44
0.0000000001
40
0
40
0
40
0
40
1.5904767002871454
40
1.5904767002871454
40
1.5904767002871454
10
314.70821703938441
20
65
30
0
10
322.8945664469461
20
71.264342021265719
30
0
10
314.70821703938441
20
75
30
0
0
LWPOLYLINE
5
137
100
AcDbEntity
8
0
100
AcDbPolyline
90
10
70
1
43
0.0
10
224.77442211778651
20
75.000000000000014
10
229.70821703938441
20
75.000000000000014
42
0.41421356237309509
10
234.70821703938441
20
80.000000000000014
10
234.70821703938441
20
95
42
0.41421356237309509
10
229.70821703938441
20
100.00000000000001
10
194.70821703938441
20
100.00000000000001
42
0.41421356237309509
10
189.70821703938441
20
95.000000000000014
10
189.70821703938441
20
80.000000000000014
42
0.41421356237309509
10
194.70821703938441
20
75.000000000000014
10
214.70821703938441
20
75.000000000000014
0
LINE
5
138
100
AcDbEntity
8
0
100
AcDbLine
10
314.70821703938441
20
35.000000000000014
30
0
11
314.70821703938441
21
65
31
0
0
LINE
5
139
100
AcDbEntity
8
0
100
AcDbLine
10
321.29037540367892
20
154.2283839458058
30
0
11
334.2288471841789
21
145
31
0
0
ARC
5
140
100
AcDbEntity
8
0
100
AcDbCircle
10
234.37201901220163
20
117.96948541441311
30
0
40
12.500604985171179
210
-0
220
0
230
1
100
AcDbArc
50
-89.556429126522957
51
34.222903176205115
0
ARC
5
141
100
AcDbEntity
8
0
100
AcDbCircle
10
271.12185661931858
20
151.03401804356864
30
0
40
63.394807609957184
210
-0
220
0
230
1
100
AcDbArc
50
313.43556119163037
51
354.53822897869912
0
LINE
5
142
100
AcDbEntity
8
0
100
AcDbLine
10
314.70821703938441
20
145
30
0
11
321.29037540367892
21
154.2283839458058
31
0
0
ARC
5
143
100
AcDbEntity
8
0
100
AcDbCircle
10
241.2557374193301
20
137.58616166366664
30
0
40
13.051095009647343
210
-0
220
0
230
1
100
AcDbArc
50
-74.660638403192266
51
47.284516811843098
0
LINE
5
144
100
AcDbEntity
8
0
100
AcDbLine
10
149.70821703938441
20
35.000000000000014
30
0
11
294.70821703938441
21
35.000000000000014
31
0
0
LINE
5
145
100
AcDbEntity
8
0
100
AcDbLine
10
247.70154103886966
20
154.2283839458058
30
0
11
314.70821703938441
21
145
31
0
0
LINE
5
146
100
AcDbEntity
8
0
100
AcDbLine
10
304.70821703938441
20
35.000000000000014
30
0
11
314.70821703938441
21
35.000000000000014
31
0
0
LINE
5
147
100
AcDbEntity
8
0
100
AcDbLine
10
188.04589104831791
20
105.10985231246322
30
0
11
234.46879488174289
21
105.46925503948158
31
0
0
LINE
5
148
100
AcDbEntity
8
0
100
AcDbLine
10
250.10905529923264
20
147.17520976388172
30
0
11
245.29402677850669
21
151.62079994648059
31
0
0
ARC
5
149
100
AcDbEntity
8
0
100
AcDbCircle
10
188.07193190243225
20
101.74623825109917
30
0
40
3.3637148630478384
210
0
220
0
230
1
100
AcDbArc
50
90.443570873476418
51
180
0
LINE
5
150
100
AcDbEntity
8
0
100
AcDbLine
10
184.70821703938441
20
85.000000000000014
30
0
11
184.70821703938441
21
101.74623825109917
31
0
0
ARC
5
151
100
AcDbEntity
8
0
100
AcDbCircle
10
321.55313250674214
20
89.999999999999986
30
0
40
16.487961297724844
210
0
220
0
230
1
100
AcDbArc
50
114.52852750705921
51
245.47147249294079
0
ARC
5
152
100
AcDbEntity
8
0
100
AcDbCircle
10
174.70821703938441
20
85.000000000000014
30
0
40
10
210
0
220
0
230
1
100
AcDbArc
50
-90
51
0
0
LINE
5
153
100
AcDbEntity
8
0
100
AcDbLine
10
134.70821703938441
20
35.000000000000014
30
0
11
314.70821703938441
21
35.000000000000014
31
0
0
LINE
5
154
100
AcDbEntity
8
0
100
AcDbLine
10
217.50064490597438
20
-41.507523497801699
30
0
11
217.50064490597438
21
-58.253761748900885
31
0
0
LINE
5
155
100
AcDbEntity
8
0
100
AcDbLine
10
220.8383189149078
20
-61.617375810264932
30
0
11
267.2612227483329
21
-61.976778537283295
31
0
0
ARC
5
156
100
AcDbEntity
8
0
100
AcDbCircle
10
267.16444687879164
20
-74.477008912214842
30
0
40
12.500604985171206
210
-0
220
0
230
1
100
AcDbArc
50
-34.222903176205286
51
89.556429126522957
0
LWPOLYLINE
5
157
100
AcDbEntity
8
0
100
AcDbPolyline
90
10
70
1
43
0.0
10
262.50064490597435
20
-56.507523497801735
10
227.50064490597438
20
-56.507523497801699
42
-0.41421356237309509
10
222.50064490597438
20
-51.507523497801699
10
222.50064490597438
20
-36.507523497801699
42
-0.41421356237309509
10
227.50064490597438
20
-31.507523497801699
10
247.50064490597438
20
-31.507523497801699
10
257.56684998437652
20
-31.507523497801699
10
262.50064490597435
20
-31.507523497801699
42
-0.41421356237309509
10
267.50064490597435
20
-36.507523497801699
10
267.50064490597441
20
-51.507523497801699
42
-0.41421356237309509
0
SPLINE
5
158
100
AcDbEntity
8
0
100
AcDbSpline
70
12
71
2
41
1
41
3.0000000000000089
41
1
72
6
73
3
74
0
42
0.000000001
43
0.0000000001
44
0.0000000001
40
0
40
0
40
0
40
1.5904767002871458
40
1.5904767002871458
40
1.5904767002871458
10
347.50064490597435
20
-21.507523497801735
30
0
10
355.68699431353605
20
-27.771865519067447
30
0
10
347.50064490597435
20
-31.507523497801735
30
0
0
LINE
5
159
100
AcDbEntity
8
0
100
AcDbLine
10
337.50064490597435
20
8.4924765021982651
30
0
11
347.50064490597435
21
8.4924765021982651
31
0
0
LINE
5
160
100
AcDbEntity
8
0
100
AcDbLine
10
278.08645464509664
20
-108.1283234442823
30
0
11
280.49396890545961
21
-110.73590744360754
31
0
0
ARC
5
161
100
AcDbEntity
8
0
100
AcDbCircle
10
303.91428448590858
20
-107.54154154137034
30
0
40
63.394807609957127
210
0
220
-0
230
1
100
AcDbArc
50
5.461771021300919
51
46.564438808369623
0
ARC
5
162
100
AcDbEntity
8
0
100
AcDbCircle
10
207.50064490597438
20
-41.507523497801699
30
0
40
10
210
-0
220
0
230
1
100
AcDbArc
50
0
51
90
0
LINE
5
163
100
AcDbEntity
8
0
100
AcDbLine
10
182.50064490597438
20
8.4924765021983006
30
0
11
327.50064490597435
21
8.4924765021982651
31
0
0
LINE
5
164
100
AcDbEntity
8
0
100
AcDbLine
10
347.50064490597435
20
-101.50752349780174
30
0
11
354.08280327026887
21
-110.73590744360754
31
0
0
ARC
5
165
100
AcDbEntity
8
0
100
AcDbCircle
10
274.04816528592005
20
-94.093685161468386
30
0
40
13.051095009647289
210
-0
220
0
230
1
100
AcDbArc
50
-47.284516811843098
51
74.660638403192294
0
LINE
5
166
100
AcDbEntity
8
0
100
AcDbLine
10
354.08280327026887
20
-110.73590744360754
30
0
11
367.02127505076885
21
-101.50752349780174
31
0
0
LINE
5
167
100
AcDbEntity
8
0
100
AcDbLine
10
167.50064490597438
20
8.4924765021983006
30
0
11
347.50064490597435
21
8.4924765021982651
31
0
0
LINE
5
168
100
AcDbEntity
8
0
100
AcDbLine
10
282.90148316582258
20
-103.68273326168347
30
0
11
278.08645464509664
21
-108.1283234442823
31
0
0
LINE
5
169
100
AcDbEntity
8
0
100
AcDbLine
10
347.50064490597435
20
8.4924765021982651
30
0
11
347.50064490597435
21
-21.507523497801735
31
0
0
ARC
5
170
100
AcDbEntity
8
0
100
AcDbCircle
10
354.34556037333209
20
-46.507523497801735
30
0
40
16.487961297724858
210
0
220
0
230
1
100
AcDbArc
50
114.52852750705921
51
245.47147249294079
0
ARC
5
171
100
AcDbEntity
8
0
100
AcDbCircle
10
220.86435976902223
20
-58.253761748900885
30
0
40
3.3637148630478464
210
0
220
0
230
1
100
AcDbArc
50
180
51
269.55642912652212
0
LINE
5
172
100
AcDbEntity
8
0
100
AcDbLine
10
-60
20
-160
30
0
11
80
21
-160
31
0
0
LINE
5
173
100
AcDbEntity
8
0
100
AcDbLine
10
-60
20
-160
30
0
11
-60
21
-180
31
0
0
LINE
5
174
100
AcDbEntity
8
0
100
AcDbLine
10
14.282066732186225
20
-194.24098822993201
30
0
11
29.817118562923987
21
-245.90634145995244
31
0
0
LINE
5
175
100
AcDbEntity
8
0
100
AcDbLine
10
29.817118562923987
20
-245.90634145995244
30
0
11
85.106299545382669
21
-239.88847142104535
31
0
0
SPLINE
5
176
100
AcDbEntity
8
0
100
AcDbSpline
70
12
71
2
41
1
41
3.0000000000000178
41
1
72
6
73
3
74
0
42
0.000000001
43
0.0000000001
44
0.0000000001
40
0
40
0
40
0
40
2.3365504451291499
40
2.3365504451291499
40
2.3365504451291499
10
70
20
-170
30
0
10
60
20
-180
30
0
10
60
20
-190
30
0
0
SPLINE
5
177
100
AcDbEntity
8
0
100
AcDbSpline
70
12
71
2
41
1
41
3.0000000000000178
41
1
72
6
73
3
74
0
42
0.000000001
43
0.0000000001
44
0.0000000001
40
0
40
0
40
0
40
2.3365504451291499
40
2.3365504451291499
40
2.3365504451291499
10
60
20
-190
30
0
10
60
20
-200
30
0
10
70
20
-210
30
0
0
SPLINE
5
178
100
AcDbEntity
8
0
100
AcDbSpline
70
12
71
2
41
1
41
3.0000000000000071
41
1
72
6
73
3
74
0
42
0.000000001
43
0.0000000001
44
0.0000000001
40
0
40
0
40
0
40
3.5077159445432375
40
3.5077159445432375
40
3.5077159445432375
10
70
20
-210
30
0
10
85.106299545382669
20
-224.60279210207057
30
0
10
85.106299545382669
20
-239.88847142104535
30
0
0
LINE
5
179
100
AcDbEntity
8
0
100
AcDbLine
10
-60
20
-180
30
0
11
-4.8708386200630516
21
-180
31
0
0
SPLINE
5
180
100
AcDbEntity
8
0
100
AcDbSpline
70
12
71
2
41
1
41
3.0000000000028049
41
1
72
6
73
3
74
0
42
0.000000001
43
0.0000000001
44
0.0000000001
40
0
40
0
40
0
40
1.4142448225648603
40
1.4142448225648603
40
1.4142448225648603
10
70
20
-170
30
0
10
74.948716550016755
20
-165.13992754149865
30
0
10
80
20
-160
30
0
0
LINE
5
181
100
AcDbEntity
8
0
100
AcDbLine
10
-260
20
-160
30
0
11
-260
21
-180
31
0
0
LINE
5
182
100
AcDbEntity
8
0
100
AcDbLine
10
-260
20
-180
30
0
11
-204.87083862006304
21
-180
31
0
0
LINE
5
183
100
AcDbEntity
8
0
100
AcDbLine
10
-260
20
-160
30
0
11
-120
21
-160
31
0
0
SPLINE
5
184
100
AcDbEntity
8
0
100
AcDbSpline
70
12
71
2
41
1
41
3.0000000000000178
41
1
72
6
73
3
74
0
42
0.000000001
43
0.0000000001
44
0.0000000001
40
0
40
0
40
0
40
2.3365504451291499
40
2.3365504451291499
40
2.3365504451291499
10
-140
20
-190
30
0
10
-140
20
-200
30
0
10
-130
20
-210
30
0
0
SPLINE
5
185
100
AcDbEntity
8
0
100
AcDbSpline
70
12
71
2
41
1
41
3.0000000000028049
41
1
72
6
73
3
74
0
42
0.000000001
43
0.0000000001
44
0.0000000001
40
0
40
0
40
0
40
1.4142448225648603
40
1.4142448225648603
40
1.4142448225648603
10
-130
20
-170
30
0
10
-125.05128344998325
20
-165.13992754149865
30
0
10
-120
20
-160
30
0
0
SPLINE
5
186
100
AcDbEntity
8
0
100
AcDbSpline
70
12
71
2
41
1
41
3.0000000000000071
41
1
72
6
73
3
74
0
42
0.000000001
43
0.0000000001
44
0.0000000001
40
0
40
0
40
0
40
3.5077159445432331
40
3.5077159445432331
40
3.5077159445432331
10
-130
20
-210
30
0
10
-114.89370045461732
20
-224.60279210207062
30
0
10
-114.89370045461733
20
-239.88847142104532
30
0
0
LINE
5
187
100
AcDbEntity
8
0
100
AcDbLine
10
-170.18288143707599
20
-245.90634145995244
30
0
11
-114.89370045461733
21
-239.88847142104532
31
0
0
LINE
5
188
100
AcDbEntity
8
0
100
AcDbLine
10
-185.71793326781375
20
-194.24098822993199
30
0
11
-170.18288143707599
21
-245.90634145995244
31
0
0
SPLINE
5
189
100
AcDbEntity
8
0
100
AcDbSpline
70
12
71
2
41
1
41
3.0000000000000178
41
1
72
6
73
3
74
0
42
0.000000001
43
0.0000000001
44
0.0000000001
40
0
40
0
40
0
40
2.3365504451291499
40
2.3365504451291499
40
2.3365504451291499
10
-130
20
-170
30
0
10
-140
20
-180
30
0
10
-140
20
-190
30
0
0
ARC
5
190
100
AcDbEntity
8
0
100
AcDbCircle
10
-4.8708386200630613
20
-200.00000000000003
30
0
40
20.000000000000032
210
0
220
-0
230
1
100
AcDbArc
50
16.735300455661516
51
89.999999999999972
0
ARC
5
191
100
AcDbEntity
8
0
100
AcDbCircle
10
-204.87083862006304
20
-200.00000000000006
30
0
40
20.000000000000068
210
0
220
-0
230
1
100
AcDbArc
50
16.735300455661665
51
90
0
LWPOLYLINE
5
192
100
AcDbEntity
8
0
100
AcDbPolyline
90
10
70
1
43
0.0
10
-100
20
-130
10
-100
20
-110
10
-40
20
-110
10
-40
20
-115
42
0.41421356237309404
10
-35.000000000000007
20
-120
10
-14.999999999999991
20
-120
42
0.41421356237309404
10
-10.000000000000009
20
-115
10
-10
20
-110
10
80
20
-110
10
80
20
-130
0
LWPOLYLINE
5
193
100
AcDbEntity
8
0
100
AcDbPolyline
90
4
70
1
43
0.0
10
59.424000885486599
20
-123.83200186014176
10
65.832000980973234
20
-114.5760017222166
42
-0.99999999999999989
10
69.576001036763188
20
-117.16800176084043
10
63.168000941276546
20
-126.42400189876557
42
-0.99999999999999989
0
LINE
5
194
100
AcDbEntity
8
0
100
AcDbLine
10
69.000001028180122
20
-114.00000171363354
30
0
11
60.000000894069665
21
-127.00000190734863
31
0
0
LWPOLYLINE
5
195
100
AcDbEntity
8
0
100
AcDbPolyline
90
4
70
1
43
0.0
10
45.424000885486599
20
-123.83200186014176
10
51.832000980973234
20
-114.5760017222166
42
-0.99999999999999989
10
55.576001036763181
20
-117.16800176084043
10
49.168000941276546
20
-126.42400189876557
42
-0.99999999999999989
0
LWPOLYLINE
5
196
100
AcDbEntity
8
0
100
AcDbPolyline
90
4
70
1
43
0.0
10
31.424000885486603
20
-123.83200186014176
10
37.832000980973241
20
-114.5760017222166
42
-0.99999999999999989
10
41.576001036763188
20
-117.16800176084043
10
35.168000941276546
20
-126.42400189876557
42
-0.99999999999999989
0
LWPOLYLINE
5
197
100
AcDbEntity
8
0
100
AcDbPolyline
90
4
70
1
43
0.0
10
17.424000885486599
20
-123.83200186014176
10
23.832000980973234
20
-114.5760017222166
42
-0.99999999999999989
10
27.576001036763181
20
-117.16800176084043
10
21.168000941276546
20
-126.42400189876557
42
-0.99999999999999989
0
LWPOLYLINE
5
198
100
AcDbEntity
8
0
100
AcDbPolyline
90
4
70
1
43
0.0
10
239.16800094127652
20
-126.42400189876557
42
-0.99999999999999989
10
235.42400088548661
20
-123.83200186014176
10
241.83200098097319
20
-114.5760017222166
42
-0.99999999999999989
10
245.57600103676319
20
-117.16800176084043
0
LWPOLYLINE
5
199
100
AcDbEntity
8
0
100
AcDbPolyline
90
4
70
1
43
0.0
10
253.16800094127657
20
-126.42400189876557
42
-0.99999999999999989
10
249.42400088548658
20
-123.83200186014176
10
255.83200098097322
20
-114.5760017222166
42
-0.99999999999999989
10
259.57600103676322
20
-117.16800176084043
0
LWPOLYLINE
5
200
100
AcDbEntity
8
0
100
AcDbPolyline
90
10
70
1
43
0.0
10
155
20
-120
42
-0.41421356237309509
10
150
20
-115
10
150
20
-110
10
90
20
-110
10
90
20
-130
10
270
20
-130
10
270
20
-110
10
180
20
-110
10
180
20
-115
42
-0.41421356237309509
10
175
20
-120
0
LWPOLYLINE
5
201
100
AcDbEntity
8
0
100
AcDbPolyline
90
4
70
1
43
0.0
10
213.83200098097325
20
-114.5760017222166
42
-0.99999999999999989
10
217.57600103676316
20
-117.16800176084043
10
211.16800094127657
20
-126.42400189876557
42
-0.99999999999999989
10
207.42400088548661
20
-123.83200186014176
0
LWPOLYLINE
5
202
100
AcDbEntity
8
0
100
AcDbPolyline
90
4
70
1
43
0.0
10
221.42400088548663
20
-123.83200186014176
10
227.83200098097322
20
-114.5760017222166
42
-0.99999999999999989
10
231.57600103676319
20
-117.16800176084043
10
225.16800094127655
20
-126.42400189876557
42
-0.99999999999999989
0
LINE
5
203
100
AcDbEntity
8
0
100
AcDbLine
10
259.00000102818012
20
-114.00000171363354
30
0
11
250.00000089406967
21
-127.00000190734863
31
0
0
CIRCLE
5
204
100
AcDbEntity
8
0
100
AcDbCircle
10
190
20
-160
30
0
40
7.5
210
0
220
0
230
1
0
CIRCLE
5
205
100
AcDbEntity
8
0
100
AcDbCircle
10
210
20
-155
30
0
40
7.5000000000000089
210
0
220
0
230
1
0
CIRCLE
5
206
100
AcDbEntity
8
0
100
AcDbCircle
10
145
20
-160
30
0
40
7.5
210
0
220
0
230
1
0
CIRCLE
5
207
100
AcDbEntity
8
0
100
AcDbCircle
10
165
20
-155
30
0
40
7.5000000000000089
210
0
220
0
230
1
0
LINE
5
208
100
AcDbEntity
8
0
100
AcDbLine
10
112.00000047683716
20
-330.00000357627869
30
0
11
95
21
-270
31
0
0
SPLINE
5
209
100
AcDbEntity
8
0
100
AcDbSpline
70
4
71
5
72
21
73
15
74
0
42
0.000000001
43
0.0000000001
44
0.0000000001
40
0
40
0
40
0
40
0
40
0
40
0
40
0.10000000000000001
40
0.20000000000000001
40
0.30000000000000004
40
0.40000000000000002
40
0.5
40
0.59999999999999998
40
0.69999999999999996
40
0.79999999999999993
40
0.89999999999999991
40
1
40
1
40
1
40
1
40
1
40
1
41
1
41
1
41
1
41
1
41
1
41
1
41
1
41
1
41
1
41
1
41
1
41
1
41
1
41
1
41
1
10
95
20
-270
30
0
10
95.342362929506891
20
-269.91064371581496
30
0
10
95.999052632047906
20
-269.72252430579329
30
0
10
96.899977825410133
20
-269.4121243668439
30
0
10
97.930232937131308
20
-268.9408901647451
30
0
10
98.91432590793147
20
-268.2499396620974
30
0
10
99.569826791071776
20
-267.44873817900123
30
0
10
99.873452705710392
20
-266.52947371830305
30
0
10
99.819077789612592
20
-265.49009089780054
30
0
10
99.427542784278103
20
-264.33758231488252
30
0
10
98.727241222582762
20
-263.08147472003208
30
0
10
97.941669866064487
20
-262.0009846773761
30
0
10
97.234021046945287
20
-261.15086735397233
30
0
10
96.710467099612629
20
-260.56674626123078
30
0
10
96.435742334841592
20
-260.27034140250356
30
0
0
LINE
5
210
100
AcDbEntity
8
0
100
AcDbLine
10
96.435742334841592
20
-260.27034140250356
30
0
11
140
21
-260.27034140250356
31
0
0
SPLINE
5
211
100
AcDbEntity
8
0
100
AcDbSpline
70
4
71
5
72
31
73
25
74
0
42
0.000000001
43
0.0000000001
44
0.0000000001
40
0
40
0
40
0
40
0
40
0
40
0
40
0.050000000000000003
40
0.10000000000000001
40
0.15000000000000002
40
0.20000000000000001
40
0.25
40
0.29999999999999999
40
0.34999999999999998
40
0.39999999999999997
40
0.44999999999999996
40
0.49999999999999994
40
0.54999999999999993
40
0.59999999999999998
40
0.65000000000000002
40
0.70000000000000007
40
0.75000000000000011
40
0.80000000000000016
40
0.8500000000000002
40
0.90000000000000024
40
0.95000000000000029
40
1
40
1
40
1
40
1
40
1
40
1
41
1
41
1
41
1
41
1
41
1
41
1
41
1
41
1
41
1
41
1
41
1
41
1
41
1
41
1
41
1
41
1
41
1
41
1
41
1
41
1
41
1
41
1
41
1
41
1
41
1
10
140
20
-260.27034140250356
30
0
10
139.73917304956962
20
-260.60747890674645
30
0
10
139.21784655963651
20
-261.32147523635604
30
0
10
138.43684101629486
20
-262.51163261127283
30
0
10
137.39745909729885
20
-264.33781694543433
30
0
10
136.11682421804957
20
-267.01826568133987
30
0
10
134.9005494422575
20
-270.08309367698439
30
0
10
133.84122309060575
20
-273.49725346735272
30
0
10
133.09267400118333
20
-277.19499966277937
30
0
10
132.83326278280239
20
-281.09190007638449
30
0
10
133.23231261797633
20
-285.09526580413797
30
0
10
134.41335089265959
20
-289.11508249398173
30
0
10
136.42094595025122
20
-293.07381314695203
30
0
10
139.17486143294585
20
-296.91876000001594
30
0
10
142.49142967251822
20
-300.61987483965441
30
0
10
146.12245111701407
20
-304.16381743021014
30
0
10
149.78594231275491
20
-307.54974253335143
30
0
10
153.20003204573825
20
-310.7847076571897
30
0
10
156.11311659421807
20
-313.8797216713333
30
0
10
158.34119336452937
20
-316.84543770138902
30
0
10
159.78760022695474
20
-319.68925679547294
30
0
10
160.28656214279692
20
-321.87071097321086
30
0
10
160.28777124694625
20
-323.45530069590654
30
0
10
160.12344492509999
20
-324.4888993799492
30
0
10
160
20
-325
30
0
0
SPLINE
5
212
100
AcDbEntity
8
0
100
AcDbSpline
70
12
71
2
41
1
41
2.9999999999998863
41
1
72
6
73
3
74
0
42
0.000000001
43
0.0000000001
44
0.0000000001
40
0
40
0
40
0
40
4.8395448439362436
40
4.8395448439362436
40
4.8395448439362436
10
160
20
-325
30
0
10
135.29640761895601
20
-330.00000357627869
30
0
10
112.00000047683716
20
-330.00000357627869
30
0
0
CIRCLE
5
213
100
AcDbEntity
8
0
100
AcDbCircle
10
245
20
-155
30
0
40
2.5
210
0
220
0
230
1
0
ARC
5
214
100
AcDbEntity
8
0
100
AcDbCircle
10
194.55758689047678
20
-24.687090043715862
30
0
40
8.0000000000000089
210
0
220
-0
230
1
100
AcDbArc
50
4.1358252309867929
51
90
0
LINE
5
215
100
AcDbEntity
8
0
100
AcDbLine
10
202.53675395346124
20
-24.110121256879218
30
0
11
203.03467923364056
21
-30.996159264614391
31
0
0
LINE
5
216
100
AcDbEntity
8
0
100
AcDbLine
10
169.83801425127643
20
67.735941169447628
30
0
11
170.33593953145578
21
74.621979177182794
31
0
0
ARC
5
217
100
AcDbEntity
8
0
100
AcDbCircle
10
161.858847188292
20
68.312909956284287
30
0
40
8.0000000000000426
210
0
220
0
230
1
100
AcDbArc
50
270
51
355.86417476901306
0
LINE
5
218
100
AcDbEntity
8
0
100
AcDbLine
10
194.55758689047678
20
-16.687090043715841
30
0
11
167.50064490597438
21
-16.68709004371393
31
0
0
LINE
5
219
100
AcDbEntity
8
0
100
AcDbLine
10
203.03467923364056
20
-30.996159264614391
30
0
11
203.03467923364056
21
-31.507523497801699
31
0
0
LINE
5
220
100
AcDbEntity
8
0
100
AcDbLine
10
161.858847188292
20
60.312909956284244
30
0
11
134.70821703938441
21
60.312909956284244
31
0
0
LINE
5
221
100
AcDbEntity
8
0
100
AcDbLine
10
170.33593953145578
20
74.621979177182794
30
0
11
170.33593953145578
21
75.000000000000014
31
0
0
LINE
5
222
100
AcDbEntity
8
0
100
AcDbLine
10
134.70821703938441
20
35.000000000000014
30
0
11
134.70821703938441
21
60.312909956284244
31
0
0
LINE
5
223
100
AcDbEntity
8
0
100
AcDbLine
10
174.70821703938441
20
75.000000000000014
30
0
11
170.33593953145578
21
75.000000000000014
31
0
0
LINE
5
224
100
AcDbEntity
8
0
100
AcDbLine
10
167.50064490597438
20
8.4924765021983006
30
0
11
167.50064490597438
21
-16.68709004371393
31
0
0
LINE
5
225
100
AcDbEntity
8
0
100
AcDbLine
10
203.03467923364056
20
-31.507523497801699
30
0
11
207.50064490597438
21
-31.507523497801699
31
0
0
LINE
5
226
100
AcDbEntity
8
0
100
AcDbLine
10
86.435742334841592
20
-170.27034140250353
30
0
11
130
21
-170.27034140250353
31
0
0
LINE
5
227
100
AcDbEntity
8
0
100
AcDbLine
10
102.00000047683716
20
-240.00000357627869
30
0
11
85
21
-180
31
0
0
SPLINE
5
228
100
AcDbEntity
8
0
100
AcDbSpline
70
4
71
5
72
21
73
15
74
0
42
0.000000001
43
0.0000000001
44
0.0000000001
40
0
40
0
40
0
40
0
40
0
40
0
40
0.10000000000000001
40
0.20000000000000001
40
0.30000000000000004
40
0.40000000000000002
40
0.5
40
0.59999999999999998
40
0.69999999999999996
40
0.79999999999999993
40
0.89999999999999991
40
1
40
1
40
1
40
1
40
1
40
1
41
1
41
1
41
1
41
1
41
1
41
1
41
1
41
1
41
1
41
1
41
1
41
1
41
1
41
1
41
1
10
85
20
-180
30
0
10
85.342362929509306
20
-179.91064371583295
30
0
10
85.999052632054415
20
-179.72252430584209
30
0
10
86.899977825420436
20
-179.41212436692246
30
0
10
87.930232937142591
20
-178.94089016483505
30
0
10
88.914325907939514
20
-178.24993966216834
30
0
10
89.569826791074817
20
-177.44873817903363
30
0
10
89.873452705709042
20
-176.52947371829146
30
0
10
89.819077789608713
20
-175.49009089775086
30
0
10
89.427542784273982
20
-174.3375823148092
30
0
10
88.727241222579863
20
-173.08147471995534
30
0
10
87.941669866062995
20
-172.00098467731621
30
0
10
87.234021046944719
20
-171.15086735393743
30
0
10
86.710467099612487
20
-170.56674626121827
30
0
10
86.435742334841592
20
-170.27034140250353
30
0
0
SPLINE
5
229
100
AcDbEntity
8
0
100
AcDbSpline
70
4
71
5
72
31
73
25
74
0
42
0.000000001
43
0.0000000001
44
0.0000000001
40
0
40
0
40
0
40
0
40
0
40
0
40
0.050000000000000003
40
0.10000000000000001
40
0.15000000000000002
40
0.20000000000000001
40
0.25
40
0.29999999999999999
40
0.34999999999999998
40
0.39999999999999997
40
0.44999999999999996
40
0.49999999999999994
40
0.54999999999999993
40
0.59999999999999998
40
0.65000000000000002
40
0.70000000000000007
40
0.75000000000000011
40
0.80000000000000016
40
0.8500000000000002
40
0.90000000000000024
40
0.95000000000000029
40
1
40
1
40
1
40
1
40
1
40
1
41
1
41
1
41
1
41
1
41
1
41
1
41
1
41
1
41
1
41
1
41
1
41
1
41
1
41
1
41
1
41
1
41
1
41
1
41
1
41
1
41
1
41
1
41
1
41
1
41
1
10
130
20
-170.27034140250353
30
0
10
129.73917304955853
20
-170.60747890672889
30
0
10
129.2178465596071
20
-171.32147523630948
30
0
10
128.43684101624962
20
-172.51163261120209
30
0
10
127.39745909725299
20
-174.33781694536475
30
0
10
126.11682421802476
20
-177.0182656813048
30
0
10
124.90054944226014
20
-180.08309367698953
30
0
10
123.84122309063004
20
-183.49725346738387
30
0
10
123.09267400121755
20
-187.194999662817
30
0
10
122.83326278283428
20
-191.0919000764126
30
0
10
123.23231261799648
20
-195.09526580414953
30
0
10
124.41335089266332
20
-199.11508249398054
30
0
10
126.42094595023828
20
-203.07381314694865
30
0
10
129.17486143292018
20
-206.91876000002105
30
0
10
132.49142967248579
20
-210.61987483967371
30
0
10
136.12245111698221
20
-214.1638174302422
30
0
10
139.78594231273061
20
-217.54974253338645
30
0
10
143.20003204572708
20
-220.78470765721224
30
0
10
146.11311659422233
20
-223.87972167132693
30
0
10
148.34119336454759
20
-226.84543770134604
30
0
10
149.78760022698037
20
-229.68925679540391
30
0
10
150.28656214281972
20
-231.87071097314569
30
0
10
150.28777124696026
20
-233.45530069586482
30
0
10
150.12344492510522
20
-234.48889937993357
30
0
10
150
20
-235
30
0
0
SPLINE
5
230
100
AcDbEntity
8
0
100
AcDbSpline
70
12
71
2
41
1
41
2.9999999999998863
41
1
72
6
73
3
74
0
42
0.000000001
43
0.0000000001
44
0.0000000001
40
0
40
0
40
0
40
4.8395448439362436
40
4.8395448439362436
40
4.8395448439362436
10
150
20
-235
30
0
10
125.29640761895601
20
-240.00000357627869
30
0
10
102.00000047683716
20
-240.00000357627869
30
0
0
LINE
5
231
100
AcDbEntity
8
0
100
AcDbLine
10
300.91585041305518
20
-107.54154154137034
30
0
11
280.49396890545961
21
-110.73590744360754
31
0
0
LINE
5
232
100
AcDbEntity
8
0
100
AcDbLine
10
278.08645464509664
20
-145.60871966208919
30
0
11
318.73967697335888
21
-140.00982166158954
31
0
0
LINE
5
233
100
AcDbEntity
8
0
100
AcDbLine
10
278.08645464509664
20
-145.60871966208919
30
0
11
300.91585041305518
21
-222.54154154137035
31
0
0
LINE
5
234
100
AcDbEntity
8
0
100
AcDbLine
10
318.73967697335888
20
-140.00982166158954
30
0
11
341.6251823642454
21
-217.31671188664018
31
0
0
LINE
5
235
100
AcDbEntity
8
0
100
AcDbLine
10
354.08280327026887
20
-235
30
0
11
272.46296425498929
21
-235
31
0
0
LINE
5
236
100
AcDbEntity
8
0
100
AcDbLine
10
347.50064490597435
20
-216.50752349780174
30
0
11
354.08280327026887
21
-225.73590744360754
31
0
0
LINE
5
237
100
AcDbEntity
8
0
100
AcDbLine
10
354.08280327026887
20
-225.73590744360754
30
0
11
354.08280327026887
21
-235
31
0
0
SPLINE
5
238
100
AcDbEntity
8
0
100
AcDbSpline
70
4
71
5
72
21
73
15
74
0
42
0.000000001
43
0.0000000001
44
0.0000000001
40
0
40
0
40
0
40
0
40
0
40
0
40
0.10000000000000001
40
0.20000000000000001
40
0.30000000000000004
40
0.40000000000000002
40
0.5
40
0.59999999999999998
40
0.69999999999999996
40
0.79999999999999993
40
0.89999999999999991
40
1
40
1
40
1
40
1
40
1
40
1
41
1
41
1
41
1
41
1
41
1
41
1
41
1
41
1
41
1
41
1
41
1
41
1
41
1
41
1
41
1
10
278.08645464509664
20
-223.1283234442823
30
0
10
277.73847602386297
20
-223.22231163003156
30
0
10
277.06336599204525
20
-223.42298576553122
30
0
10
276.11324215768838
20
-223.7620900058339
30
0
10
274.97355424207888
20
-224.29167066125885
30
0
10
273.77498572719196
20
-225.09132533553949
30
0
10
272.82168496035462
20
-226.04036939492985
30
0
10
272.13215918878882
20
-227.15007536219932
30
0
10
271.7136999162924
20
-228.42488439714595
30
0
10
271.5525073056516
20
-229.85639119896854
30
0
10
271.62785239083394
20
-231.4319700249209
30
0
10
271.86118497986479
20
-232.79783955446834
30
0
10
272.12724321279433
20
-233.87770442316219
30
0
10
272.3444224022756
20
-234.62186028073961
30
0
10
272.46296425498929
20
-235
30
0
0
LINE
5
239
100
AcDbEntity
8
0
100
AcDbLine
10
341.6251823642454
20
-102.31671188664016
30
0
11
347.50064490597435
21
-101.50752349780174
31
0
0
LINE
5
240
100
AcDbEntity
8
0
100
AcDbLine
10
12.993323999485341
20
-99.228383945805803
30
0
11
33.470037940833464
21
-96.408262288110933
31
0
0
LINE
5
241
100
AcDbEntity
8
0
100
AcDbLine
10
300.91585041305518
20
-107.54154154137034
30
0
11
341.6251823642454
21
-102.31671188664016
31
0
0
LINE
5
242
100
AcDbEntity
8
0
100
AcDbLine
10
51.069676973358895
20
-8.879821661589542
30
0
11
73.955182364245431
21
-86.186711886640168
31
0
0
LINE
5
243
100
AcDbEntity
8
0
100
AcDbLine
10
9.2052328877288456
20
-14.645533181094642
30
0
11
51.069676973358895
21
-8.879821661589542
31
0
0
LINE
5
244
100
AcDbEntity
8
0
100
AcDbLine
10
9.2052328877288456
20
-14.645533181094642
30
0
11
33.46885041305525
21
-96.41154154137034
31
0
0
LINE
5
245
100
AcDbEntity
8
0
100
AcDbLine
10
73.955182364245431
20
-86.186711886640168
30
0
11
75.276623281251887
21
-90.650519268870369
31
0
0
LINE
5
246
100
AcDbEntity
8
0
100
AcDbLine
10
80
20
-90
30
0
11
75.276623281251887
21
-90.650519268870369
31
0
0
LINE
5
247
100
AcDbEntity
8
0
100
AcDbLine
10
9.2052328877288403
20
73.540413868960556
30
0
11
51.069676973358895
21
67.774702349455453
31
0
0
SPLINE
5
248
100
AcDbEntity
8
0
100
AcDbSpline
70
12
71
2
41
1
41
3.0000000000000089
41
1
72
6
73
3
74
0
42
0.000000001
43
0.0000000001
44
0.0000000001
40
0
40
0
40
0
40
1.5904767002871569
40
1.5904767002871569
40
1.5904767002871569
10
80
20
68.894880687865907
30
0
10
88.186349407561764
20
75.15922270913164
30
0
10
80
20
78.894880687865907
30
0
0
ARC
5
249
100
AcDbEntity
8
0
100
AcDbCircle
10
-40
20
98.894880687865907
30
0
40
5
210
0
220
-0
230
1
100
AcDbArc
50
90
51
180
0
LINE
5
250
100
AcDbEntity
8
0
100
AcDbLine
10
80
20
38.894880687865907
30
0
11
80
21
68.894880687865907
31
0
0
LINE
5
251
100
AcDbEntity
8
0
100
AcDbLine
10
60
20
33.894880687865907
30
0
11
65
21
33.894880687865907
31
0
0
LINE
5
252
100
AcDbEntity
8
0
100
AcDbLine
10
51.069676973358895
20
67.774702349455453
30
0
11
73.955182364245431
21
145.08159257450609
31
0
0
SPLINE
5
253
100
AcDbEntity
8
0
100
AcDbSpline
70
12
71
2
41
1
41
3.0000000000000373
41
1
72
6
73
3
74
0
42
0.000000001
43
0.0000000001
44
0.0000000001
40
0
40
0
40
0
40
0.70584727780490553
40
0.70584727780490553
40
0.70584727780490553
10
-25
20
98.894880687865907
30
0
10
-25
20
100.8044030608433
30
0
10
-19.000000283122063
20
98.894881283912355
30
0
0
LINE
5
254
100
AcDbEntity
8
0
100
AcDbLine
10
60
20
38.894880687865907
30
0
11
60
21
33.894880687865907
31
0
0
ARC
5
255
100
AcDbEntity
8
0
100
AcDbCircle
10
-40
20
83.894880687865907
30
0
40
4.9999999999999911
210
0
220
0
230
1
100
AcDbArc
50
180
51
270
0
LINE
5
256
100
AcDbEntity
8
0
100
AcDbLine
10
0
20
98.894880687865907
30
0
11
0
21
83.894880687865907
31
0
0
ARC
5
257
100
AcDbEntity
8
0
100
AcDbCircle
10
36.413639579934234
20
154.92889873143451
30
0
40
63.394807609957098
210
-0
220
0
230
1
100
AcDbArc
50
313.43556119163037
51
354.53822897869912
0
SPLINE
5
258
100
AcDbEntity
8
0
100
AcDbSpline
70
12
71
2
41
1
41
3
41
1
72
6
73
3
74
0
42
0.000000001
43
0.0000000001
44
0.0000000001
40
0
40
0
40
0
40
2.2495038626019119
40
2.2495038626019119
40
2.2495038626019119
10
-9.9337949215978227
20
78.894880687865907
30
0
10
-15.000000223517418
20
96.894881254110032
30
0
10
-19.000000283122063
20
98.894881283912355
30
0
0
LINE
5
259
100
AcDbEntity
8
0
100
AcDbLine
10
-85
20
33.894880687865907
30
0
11
-85
21
38.894880687865907
31
0
0
ARC
5
260
100
AcDbEntity
8
0
100
AcDbCircle
10
-0.3361980271827214
20
121.86436610227901
30
0
40
12.500604985171179
210
0
220
0
230
1
100
AcDbArc
50
-89.556429126523199
51
34.222903176205257
0
LINE
5
261
100
AcDbEntity
8
0
100
AcDbLine
10
9.2052328877288403
20
73.540413868960556
30
0
11
33.46885041305525
21
155.30642222923626
31
0
0
LINE
5
262
100
AcDbEntity
8
0
100
AcDbLine
10
-100
20
78.894880687865907
30
0
11
-60
21
78.894880687865907
31
0
0
ARC
5
263
100
AcDbEntity
8
0
100
AcDbCircle
10
6.5475203799456594
20
141.48104235153255
30
0
40
13.051095009647369
210
-0
220
0
230
1
100
AcDbArc
50
-74.660638403192166
51
47.284516811842693
0
LINE
5
264
100
AcDbEntity
8
0
100
AcDbLine
10
73.955182364245431
20
145.08159257450609
30
0
11
75.276623281251887
21
149.54539995673628
31
0
0
LINE
5
265
100
AcDbEntity
8
0
100
AcDbLine
10
15.400838259848317
20
151.07009045174763
30
0
11
10.585809739122372
21
155.51568063434647
31
0
0
LINE
5
266
100
AcDbEntity
8
0
100
AcDbLine
10
10.585809739122372
20
155.51568063434647
30
0
11
12.993323999485344
21
158.12326463367171
31
0
0
LINE
5
267
100
AcDbEntity
8
0
100
AcDbLine
10
80
20
148.89488068786591
30
0
11
75.276623281251887
21
149.54539995673628
31
0
0
LINE
5
268
100
AcDbEntity
8
0
100
AcDbLine
10
12.993323999485344
20
158.12326463367171
30
0
11
33.470037940833457
21
155.30314297597684
31
0
0
LINE
5
269
100
AcDbEntity
8
0
100
AcDbLine
10
86.582158364294486
20
158.12326463367171
30
0
11
99.520630144794495
21
148.89488068786591
31
0
0
LINE
5
270
100
AcDbEntity
8
0
100
AcDbLine
10
80
20
148.89488068786591
30
0
11
86.582158364294486
21
158.12326463367171
31
0
0
LINE
5
271
100
AcDbEntity
8
0
100
AcDbLine
10
-5
20
78.894880687865907
30
0
11
-9.9337949215978227
21
78.894880687865907
31
0
0
ARC
5
272
100
AcDbEntity
8
0
100
AcDbCircle
10
86.84491546735768
20
93.894880687865907
30
0
40
16.487961297724844
210
0
220
0
230
1
100
AcDbArc
50
114.52852750705902
51
245.47147249294096
0
LINE
5
273
100
AcDbEntity
8
0
100
AcDbLine
10
-50
20
88.894880687865907
30
0
11
-50
21
105.64111893896506
31
0
0
LINE
5
274
100
AcDbEntity
8
0
100
AcDbLine
10
-85
20
38.894880687865907
30
0
11
60
21
38.894880687865907
31
0
0
LINE
5
275
100
AcDbEntity
8
0
100
AcDbLine
10
70
20
38.894880687865907
30
0
11
80
21
38.894880687865907
31
0
0
ARC
5
276
100
AcDbEntity
8
0
100
AcDbCircle
10
-60
20
88.894880687865907
30
0
40
10
210
0
220
0
230
1
100
AcDbArc
50
-90
51
0
0
LINE
5
277
100
AcDbEntity
8
0
100
AcDbLine
10
-100
20
38.894880687865907
30
0
11
-100
21
78.894880687865907
31
0
0
LINE
5
278
100
AcDbEntity
8
0
100
AcDbLine
10
-46.662325991066552
20
109.00473300032911
30
0
11
-0.23942215764151342
21
109.36413572734747
31
0
0
LINE
5
279
100
AcDbEntity
8
0
100
AcDbLine
10
-40
20
78.894880687865907
30
0
11
-20
21
78.894880687865907
31
0
0
ARC
5
280
100
AcDbEntity
8
0
100
AcDbCircle
10
-46.636285136952182
20
105.64111893896506
30
0
40
3.3637148630478393
210
0
220
0
230
1
100
AcDbArc
50
90.443570873476915
51
180
0
SPLINE
5
281
100
AcDbEntity
8
0
100
AcDbSpline
70
12
71
2
41
1
41
3
41
1
72
6
73
3
74
0
42
0.000000001
43
0.0000000001
44
0.0000000001
40
0
40
0
40
0
40
2.1152204081073034
40
2.1152204081073034
40
2.1152204081073034
10
-20
20
78.894880687865907
30
0
10
-21.000000312924385
20
94.89488122430771
30
0
10
-25
20
98.894880687865907
30
0
0
SPLINE
5
282
100
AcDbEntity
8
0
100
AcDbSpline
70
12
71
2
41
1
41
3.0000000000000178
41
1
72
6
73
3
74
0
42
0.000000001
43
0.0000000001
44
0.0000000001
40
0
40
0
40
0
40
1.6005206559615166
40
1.6005206559615166
40
1.6005206559615166
10
-100
20
38.894880687865907
30
0
10
-90
20
33.894880687865907
30
0
10
-85
20
33.894880687865907
30
0
0
LINE
5
283
100
AcDbEntity
8
0
100
AcDbLine
10
-44.999999999999993
20
83.894880687865907
30
0
11
-45
21
98.894880687865907
31
0
0
LINE
5
284
100
AcDbEntity
8
0
100
AcDbLine
10
-40
20
103.89488068786591
30
0
11
-5
21
103.89488068786591
31
0
0
ARC
5
285
100
AcDbEntity
8
0
100
AcDbCircle
10
-5
20
98.894880687865907
30
0
40
5
210
0
220
0
230
1
100
AcDbArc
50
0
51
90
0
LINE
5
286
100
AcDbEntity
8
0
100
AcDbLine
10
65
20
33.894880687865907
30
0
11
70
21
38.894880687865907
31
0
0
ARC
5
287
100
AcDbEntity
8
0
100
AcDbCircle
10
-5
20
83.894880687865907
30
0
40
5
210
-0
220
0
230
1
100
AcDbArc
50
-90
51
0
0
LWPOLYLINE
5
288
100
AcDbEntity
8
0
100
AcDbPolyline
90
10
70
1
43
0.0
10
-235
20
78.894880687865907
42
-0.41421356237309509
10
-240
20
83.894880687865907
10
-240
20
98.894880687865907
42
-0.41421356237309509
10
-235
20
103.89488068786591
10
-200
20
103.89488068786591
42
-0.41421356237309509
10
-195
20
98.894880687865907
10
-195
20
83.894880687865907
42
-0.41421356237309509
10
-200
20
78.894880687865907
10
-220
20
78.894880687865907
10
-230.06620507840216
20
78.894880687865907
0
LINE
5
289
100
AcDbEntity
8
0
100
AcDbLine
10
-326.58215836429451
20
158.12326463367171
30
0
11
-339.5206301447945
21
148.89488068786591
31
0
0
SPLINE
5
290
100
AcDbEntity
8
0
100
AcDbSpline
70
12
71
2
41
1
41
3.0000000000000089
41
1
72
6
73
3
74
0
42
0.000000001
43
0.0000000001
44
0.0000000001
40
0
40
0
40
0
40
1.5904767002871569
40
1.5904767002871569
40
1.5904767002871569
10
-320
20
-10
30
0
10
-328.18634940756175
20
-16.26434202126573
30
0
10
-320
20
-20
30
0
0
ARC
5
291
100
AcDbEntity
8
0
100
AcDbCircle
10
-193.36371486304782
20
-46.74623825109915
30
0
40
3.3637148630478393
210
0
220
0
230
1
100
AcDbArc
50
-89.556429126523113
51
0
0
ARC
5
292
100
AcDbEntity
8
0
100
AcDbCircle
10
-193.36371486304782
20
105.64111893896506
30
0
40
3.3637148630478109
210
0
220
0
230
1
100
AcDbArc
50
0
51
89.556429126523099
0
LWPOLYLINE
5
293
100
AcDbEntity
8
0
100
AcDbPolyline
90
10
70
1
43
0.0
10
-230.06620507840216
20
-20
10
-235
20
-20
42
0.41421356237309509
10
-240
20
-25
10
-240
20
-40
42
0.41421356237309509
10
-235
20
-45
10
-200
20
-45
42
0.41421356237309509
10
-195
20
-40
10
-195
20
-25
42
0.41421356237309509
10
-200
20
-20
10
-220
20
-20
0
LINE
5
294
100
AcDbEntity
8
0
100
AcDbLine
10
-140
20
78.894880687865907
30
0
11
-180
21
78.894880687865907
31
0
0
LINE
5
295
100
AcDbEntity
8
0
100
AcDbLine
10
-190
20
88.894880687865907
30
0
11
-190
21
105.64111893896506
31
0
0
LINE
5
296
100
AcDbEntity
8
0
100
AcDbLine
10
-140
20
20
30
0
11
-140
21
-20
31
0
0
LINE
5
297
100
AcDbEntity
8
0
100
AcDbLine
10
-249.20523288772884
20
-14.645533181094645
30
0
11
-273.46885041305529
21
-96.41154154137034
31
0
0
ARC
5
298
100
AcDbEntity
8
0
100
AcDbCircle
10
-239.66380197281728
20
-62.9694854144131
30
0
40
12.500604985171179
210
0
220
0
230
1
100
AcDbArc
50
90.443570873476801
51
214.22290317620525
0
LINE
5
299
100
AcDbEntity
8
0
100
AcDbLine
10
-193.33767400893345
20
-50.109852312463197
30
0
11
-239.76057784235849
21
-50.46925503948156
31
0
0
ARC
5
300
100
AcDbEntity
8
0
100
AcDbCircle
10
-276.41363957993423
20
-96.034018043568608
30
0
40
63.394807609957098
210
0
220
0
230
1
100
AcDbArc
50
133.43556119163037
51
174.5382289786991
0
ARC
5
301
100
AcDbEntity
8
0
100
AcDbCircle
10
-276.41363957993423
20
154.92889873143451
30
0
40
63.394807609957091
210
0
220
0
230
1
100
AcDbArc
50
185.4617710213009
51
226.56443880836963
0
LINE
5
302
100
AcDbEntity
8
0
100
AcDbLine
10
-291.06967697335892
20
-8.879821661589542
30
0
11
-313.95518236424545
21
-86.186711886640168
31
0
0
ARC
5
303
100
AcDbEntity
8
0
100
AcDbCircle
10
-326.84491546735774
20
93.894880687865907
30
0
40
16.487961297724858
210
0
220
0
230
1
100
AcDbArc
50
-65.471472492940805
51
65.471472492940819
0
ARC
5
304
100
AcDbEntity
8
0
100
AcDbCircle
10
-246.54752037994567
20
141.48104235153255
30
0
40
13.05109500964736
210
0
220
0
230
1
100
AcDbArc
50
132.71548318815718
51
254.66063840319217
0
SPLINE
5
305
100
AcDbEntity
8
0
100
AcDbSpline
70
12
71
2
41
1
41
3
41
1
72
6
73
3
74
0
42
0.000000001
43
0.0000000001
44
0.0000000001
40
0
40
0
40
0
40
2.2495038626019115
40
2.2495038626019115
40
2.2495038626019115
10
-230.06620507840216
20
78.894880687865907
30
0
10
-224.99999977648258
20
96.894881254110032
30
0
10
-220.99999971687794
20
98.894881283912355
30
0
0
LINE
5
306
100
AcDbEntity
8
0
100
AcDbLine
10
-190
20
-30
30
0
11
-190
21
-46.74623825109915
31
0
0
ARC
5
307
100
AcDbEntity
8
0
100
AcDbCircle
10
-326.84491546735774
20
-35
30
0
40
16.487961297724858
210
0
220
0
230
1
100
AcDbArc
50
-65.471472492940805
51
65.471472492940819
0
LINE
5
308
100
AcDbEntity
8
0
100
AcDbLine
10
-255.40083825984829
20
151.07009045174763
30
0
11
-250.58580973912234
21
155.51568063434647
31
0
0
SPLINE
5
309
100
AcDbEntity
8
0
100
AcDbSpline
70
12
71
2
41
1
41
3.0000000000000373
41
1
72
6
73
3
74
0
42
0.000000001
43
0.0000000001
44
0.0000000001
40
0
40
0
40
0
40
0.70584727780490508
40
0.70584727780490508
40
0.70584727780490508
10
-215
20
98.894880687865907
30
0
10
-214.99999999999997
20
100.8044030608433
30
0
10
-220.99999971687794
20
98.894881283912355
30
0
0
LINE
5
310
100
AcDbEntity
8
0
100
AcDbLine
10
-249.20523288772884
20
73.540413868960556
30
0
11
-273.46885041305529
21
155.30642222923626
31
0
0
LINE
5
311
100
AcDbEntity
8
0
100
AcDbLine
10
-320
20
148.89488068786591
30
0
11
-326.58215836429451
21
158.12326463367171
31
0
0
ARC
5
312
100
AcDbEntity
8
0
100
AcDbCircle
10
-246.54752037994567
20
-82.586161663666644
30
0
40
13.051095009647369
210
0
220
0
230
1
100
AcDbArc
50
105.33936159680782
51
227.28451681184282
0
LINE
5
313
100
AcDbEntity
8
0
100
AcDbLine
10
-313.95518236424545
20
145.08159257450609
30
0
11
-315.27662328125189
21
149.54539995673628
31
0
0
LINE
5
314
100
AcDbEntity
8
0
100
AcDbLine
10
-320
20
-90
30
0
11
-315.27662328125189
21
-90.650519268870369
31
0
0
LINE
5
315
100
AcDbEntity
8
0
100
AcDbLine
10
-252.99332399948531
20
-99.228383945805803
30
0
11
-273.47003794083344
21
-96.408262288110933
31
0
0
LINE
5
316
100
AcDbEntity
8
0
100
AcDbLine
10
-255.40083825984829
20
-92.175209763881725
30
0
11
-250.58580973912234
21
-96.62079994648056
31
0
0
LINE
5
317
100
AcDbEntity
8
0
100
AcDbLine
10
-249.20523288772884
20
-14.645533181094645
30
0
11
-291.06967697335892
21
-8.879821661589542
31
0
0
LINE
5
318
100
AcDbEntity
8
0
100
AcDbLine
10
-320
20
148.89488068786591
30
0
11
-315.27662328125189
21
149.54539995673628
31
0
0
LINE
5
319
100
AcDbEntity
8
0
100
AcDbLine
10
-291.06967697335892
20
67.774702349455453
30
0
11
-313.95518236424545
21
145.08159257450609
31
0
0
LINE
5
320
100
AcDbEntity
8
0
100
AcDbLine
10
-250.58580973912234
20
155.51568063434647
30
0
11
-252.99332399948531
21
158.12326463367171
31
0
0
SPLINE
5
321
100
AcDbEntity
8
0
100
AcDbSpline
70
12
71
2
41
1
41
3
41
1
72
6
73
3
74
0
42
0.000000001
43
0.0000000001
44
0.0000000001
40
0
40
0
40
0
40
2.1152204081073034
40
2.1152204081073034
40
2.1152204081073034
10
-220
20
-20
30
0
10
-218.99999968707561
20
-36.000000536441803
30
0
10
-215
20
-40
30
0
0
SPLINE
5
322
100
AcDbEntity
8
0
100
AcDbSpline
70
12
71
2
41
1
41
3
41
1
72
6
73
3
74
0
42
0.000000001
43
0.0000000001
44
0.0000000001
40
0
40
0
40
0
40
2.2495038626019115
40
2.2495038626019115
40
2.2495038626019115
10
-230.06620507840216
20
-20
30
0
10
-224.99999977648258
20
-38.000000566244125
30
0
10
-220.99999971687794
20
-40.000000596046448
30
0
0
LINE
5
323
100
AcDbEntity
8
0
100
AcDbLine
10
-320
20
38.894880687865907
30
0
11
-320
21
68.894880687865907
31
0
0
LINE
5
324
100
AcDbEntity
8
0
100
AcDbLine
10
-140
20
38.894880687865907
30
0
11
-140
21
78.894880687865907
31
0
0
SPLINE
5
325
100
AcDbEntity
8
0
100
AcDbSpline
70
12
71
2
41
1
41
3.0000000000000089
41
1
72
6
73
3
74
0
42
0.000000001
43
0.0000000001
44
0.0000000001
40
0
40
0
40
0
40
1.5904767002871569
40
1.5904767002871569
40
1.5904767002871569
10
-320
20
68.894880687865907
30
0
10
-328.18634940756175
20
75.15922270913164
30
0
10
-320
20
78.894880687865907
30
0
0
LINE
5
326
100
AcDbEntity
8
0
100
AcDbLine
10
-193.33767400893345
20
109.00473300032911
30
0
11
-239.76057784235849
21
109.36413572734747
31
0
0
SPLINE
5
327
100
AcDbEntity
8
0
100
AcDbSpline
70
12
71
2
41
1
41
3.0000000000000373
41
1
72
6
73
3
74
0
42
0.000000001
43
0.0000000001
44
0.0000000001
40
0
40
0
40
0
40
0.70584727780490508
40
0.70584727780490508
40
0.70584727780490508
10
-215
20
-40
30
0
10
-214.99999999999997
20
-41.909522372977399
30
0
10
-220.99999971687794
20
-40.000000596046448
30
0
0
ARC
5
328
100
AcDbEntity
8
0
100
AcDbCircle
10
-180
20
-30
30
0
40
10
210
0
220
-0
230
1
100
AcDbArc
50
90
51
180
0
LINE
5
329
100
AcDbEntity
8
0
100
AcDbLine
10
-155
20
38.894880687865907
30
0
11
-300
21
38.894880687865907
31
0
0
LINE
5
330
100
AcDbEntity
8
0
100
AcDbLine
10
-155
20
20
30
0
11
-300
21
20
31
0
0
LINE
5
331
100
AcDbEntity
8
0
100
AcDbLine
10
-310
20
38.894880687865907
30
0
11
-320
21
38.894880687865907
31
0
0
LINE
5
332
100
AcDbEntity
8
0
100
AcDbLine
10
-252.99332399948531
20
158.12326463367171
30
0
11
-273.47003794083344
21
155.30314297597684
31
0
0
LINE
5
333
100
AcDbEntity
8
0
100
AcDbLine
10
-140
20
-20
30
0
11
-180
21
-20
31
0
0
LINE
5
334
100
AcDbEntity
8
0
100
AcDbLine
10
-320
20
20
30
0
11
-320
21
-10
31
0
0
LINE
5
335
100
AcDbEntity
8
0
100
AcDbLine
10
-326.58215836429451
20
-99.228383945805803
30
0
11
-339.5206301447945
21
-90
31
0
0
LINE
5
336
100
AcDbEntity
8
0
100
AcDbLine
10
-313.95518236424545
20
-86.186711886640168
30
0
11
-315.27662328125189
21
-90.650519268870369
31
0
0
SPLINE
5
337
100
AcDbEntity
8
0
100
AcDbSpline
70
12
71
2
41
1
41
3
41
1
72
6
73
3
74
0
42
0.000000001
43
0.0000000001
44
0.0000000001
40
0
40
0
40
0
40
2.1152204081073034
40
2.1152204081073034
40
2.1152204081073034
10
-220
20
78.894880687865907
30
0
10
-218.99999968707561
20
94.89488122430771
30
0
10
-215
20
98.894880687865907
30
0
0
LINE
5
338
100
AcDbEntity
8
0
100
AcDbLine
10
-249.20523288772884
20
73.540413868960556
30
0
11
-291.06967697335892
21
67.774702349455453
31
0
0
LINE
5
339
100
AcDbEntity
8
0
100
AcDbLine
10
-250.58580973912234
20
-96.62079994648056
30
0
11
-252.99332399948531
21
-99.228383945805803
31
0
0
LINE
5
340
100
AcDbEntity
8
0
100
AcDbLine
10
-310
20
20
30
0
11
-320
21
20
31
0
0
LINE
5
341
100
AcDbEntity
8
0
100
AcDbLine
10
-320
20
-90
30
0
11
-326.58215836429451
21
-99.228383945805803
31
0
0
ARC
5
342
100
AcDbEntity
8
0
100
AcDbCircle
10
-239.66380197281728
20
121.86436610227901
30
0
40
12.500604985171149
210
0
220
0
230
1
100
AcDbArc
50
145.77709682379475
51
269.5564291265232
0
ARC
5
343
100
AcDbEntity
8
0
100
AcDbCircle
10
-180
20
88.894880687865907
30
0
40
10
210
0
220
0
230
1
100
AcDbArc
50
180
51
270
0
LINE
5
344
100
AcDbEntity
8
0
100
AcDbLine
10
-310
20
20
30
0
11
-300
21
20
31
0
0
LINE
5
345
100
AcDbEntity
8
0
100
AcDbLine
10
-155
20
20
30
0
11
-140
21
20
31
0
0
LINE
5
346
100
AcDbEntity
8
0
100
AcDbLine
10
-140
20
38.894880687865907
30
0
11
-155
21
38.894880687865907
31
0
0
LINE
5
347
100
AcDbEntity
8
0
100
AcDbLine
10
-300
20
38.894880687865907
30
0
11
-310
21
38.894880687865907
31
0
0
LINE
5
348
100
AcDbEntity
8
0
100
AcDbLine
10
370.49396890545961
20
-225.73590744360754
30
0
11
437.50064490597435
21
-216.50752349780174
31
0
0
SPLINE
5
349
100
AcDbEntity
8
0
100
AcDbSpline
70
4
71
5
72
21
73
15
74
0
42
0.000000001
43
0.0000000001
44
0.0000000001
40
0
40
0
40
0
40
0
40
0
40
0
40
0.10000000000000001
40
0.20000000000000001
40
0.30000000000000004
40
0.40000000000000002
40
0.5
40
0.59999999999999998
40
0.69999999999999996
40
0.79999999999999993
40
0.89999999999999991
40
1
40
1
40
1
40
1
40
1
40
1
41
1
41
1
41
1
41
1
41
1
41
1
41
1
41
1
41
1
41
1
41
1
41
1
41
1
41
1
41
1
10
368.08645464509664
20
-223.1283234442823
30
0
10
367.73847602382597
20
-223.22231163003156
30
0
10
367.06336599194395
20
-223.42298576553122
30
0
10
366.11324215752012
20
-223.7620900058339
30
0
10
364.9735542418768
20
-224.29167066125885
30
0
10
363.77498572702154
20
-225.09132533553949
30
0
10
362.8216849602652
20
-226.04036939492985
30
0
10
362.13215918880428
20
-227.15007536219932
30
0
10
361.71369991640915
20
-228.42488439714595
30
0
10
361.55250730584009
20
-229.85639119896854
30
0
10
361.6278523910421
20
-231.4319700249209
30
0
10
361.86118498003202
20
-232.79783955446834
30
0
10
362.12724321289306
20
-233.87770442316219
30
0
10
362.34442240231135
20
-234.62186028073961
30
0
10
362.46296425498929
20
-235
30
0
0
LINE
5
350
100
AcDbEntity
8
0
100
AcDbLine
10
444.08280327026887
20
-235
30
0
11
362.46296425498929
21
-235
31
0
0
LINE
5
351
100
AcDbEntity
8
0
100
AcDbLine
10
437.50064490597435
20
-216.50752349780174
30
0
11
444.08280327026887
21
-225.73590744360754
31
0
0
LINE
5
352
100
AcDbEntity
8
0
100
AcDbLine
10
444.08280327026887
20
-225.73590744360754
30
0
11
444.08280327026887
21
-235
31
0
0
LINE
5
353
100
AcDbEntity
8
0
100
AcDbLine
10
278.08645464509664
20
-223.1283234442823
30
0
11
280.49396890545961
21
-225.73590744360754
31
0
0
LINE
5
354
100
AcDbEntity
8
0
100
AcDbLine
10
368.08645464509664
20
-223.1283234442823
30
0
11
370.49396890545961
21
-225.73590744360754
31
0
0
SPLINE
5
355
100
AcDbEntity
8
0
100
AcDbSpline
70
4
71
5
72
21
73
15
74
0
42
0.000000001
43
0.0000000001
44
0.0000000001
40
0
40
0
40
0
40
0
40
0
40
0
40
0.10000000000000001
40
0.20000000000000001
40
0.30000000000000004
40
0.40000000000000002
40
0.5
40
0.59999999999999998
40
0.69999999999999996
40
0.79999999999999993
40
0.89999999999999991
40
1
40
1
40
1
40
1
40
1
40
1
41
1
41
1
41
1
41
1
41
1
41
1
41
1
41
1
41
1
41
1
41
1
41
1
41
1
41
1
41
1
10
368.08645464509664
20
-253.1283234442823
30
0
10
367.73847602382597
20
-253.22231163008016
30
0
10
367.06336599194395
20
-253.42298576566364
30
0
10
366.11324215752012
20
-253.76209000605093
30
0
10
364.9735542418768
20
-254.29167066151336
30
0
10
363.77498572702154
20
-255.09132533574615
30
0
10
362.8216849602652
20
-256.04036939503197
30
0
10
362.13215918880428
20
-257.15007536217905
30
0
10
361.71369991640915
20
-258.42488439701935
30
0
10
361.55250730584009
20
-259.85639119877527
30
0
10
361.6278523910421
20
-261.43197002471715
30
0
10
361.86118498003202
20
-262.79783955430963
30
0
10
362.12724321289306
20
-263.8777044230701
30
0
10
362.34442240231135
20
-264.62186028070653
30
0
10
362.46296425498929
20
-265
30
0
0
LINE
5
356
100
AcDbEntity
8
0
100
AcDbLine
10
437.50064490597435
20
-246.50752349780174
30
0
11
444.08280327026887
21
-255.73590744360754
31
0
0
LINE
5
357
100
AcDbEntity
8
0
100
AcDbLine
10
444.08280327026887
20
-265
30
0
11
362.46296425498929
21
-265
31
0
0
LINE
5
358
100
AcDbEntity
8
0
100
AcDbLine
10
368.08645464509664
20
-253.1283234442823
30
0
11
370.49396890545961
21
-255.73590744360754
31
0
0
LINE
5
359
100
AcDbEntity
8
0
100
AcDbLine
10
370.49396890545961
20
-255.73590744360754
30
0
11
437.50064490597435
21
-246.50752349780174
31
0
0
LINE
5
360
100
AcDbEntity
8
0
100
AcDbLine
10
444.08280327026887
20
-255.73590744360754
30
0
11
444.08280327026887
21
-265
31
0
0
LINE
5
361
100
AcDbEntity
8
0
100
AcDbLine
10
280.49396890545961
20
-225.73590744360754
30
0
11
300.91585041305518
21
-222.54154154137035
31
0
0
LINE
5
362
100
AcDbEntity
8
0
100
AcDbLine
10
341.6251823642454
20
-217.31671188664018
30
0
11
347.50064490597435
21
-216.50752349780174
31
0
0
LINE
5
363
100
AcDbEntity
8
0
100
AcDbLine
10
368.08645464509664
20
-313.12832344428227
30
0
11
370.49396890545961
21
-315.73590744360752
31
0
0
LINE
5
364
100
AcDbEntity
8
0
100
AcDbLine
10
444.08280327026887
20
-315.73590744360752
30
0
11
444.08280327026887
21
-325
31
0
0
LINE
5
365
100
AcDbEntity
8
0
100
AcDbLine
10
437.50064490597435
20
-306.50752349780174
30
0
11
444.08280327026887
21
-315.73590744360752
31
0
0
LINE
5
366
100
AcDbEntity
8
0
100
AcDbLine
10
370.49396890545961
20
-315.73590744360752
30
0
11
437.50064490597435
21
-306.50752349780174
31
0
0
LINE
5
367
100
AcDbEntity
8
0
100
AcDbLine
10
437.50064490597435
20
-276.50752349780174
30
0
11
444.08280327026887
21
-285.73590744360752
31
0
0
SPLINE
5
368
100
AcDbEntity
8
0
100
AcDbSpline
70
4
71
5
72
21
73
15
74
0
42
0.000000001
43
0.0000000001
44
0.0000000001
40
0
40
0
40
0
40
0
40
0
40
0
40
0.10000000000000001
40
0.20000000000000001
40
0.30000000000000004
40
0.40000000000000002
40
0.5
40
0.59999999999999998
40
0.69999999999999996
40
0.79999999999999993
40
0.89999999999999991
40
1
40
1
40
1
40
1
40
1
40
1
41
1
41
1
41
1
41
1
41
1
41
1
41
1
41
1
41
1
41
1
41
1
41
1
41
1
41
1
41
1
10
368.08645464509664
20
-313.12832344428227
30
0
10
367.73847602382597
20
-313.22231163003426
30
0
10
367.06336599194395
20
-313.42298576553793
30
0
10
366.11324215752012
20
-313.76209000584265
30
0
10
364.9735542418768
20
-314.29167066126263
30
0
10
363.77498572702154
20
-315.09132533553338
30
0
10
362.8216849602652
20
-316.04036939491954
30
0
10
362.13215918880428
20
-317.15007536219804
30
0
10
361.71369991640915
20
-318.42488439716755
30
0
10
361.55250730584009
20
-319.85639119901754
30
0
10
361.6278523910421
20
-321.43197002498709
30
0
10
361.86118498003202
20
-322.79783955452774
30
0
10
362.12724321289306
20
-323.87770442319913
30
0
10
362.34442240231135
20
-324.62186028075331
30
0
10
362.46296425498929
20
-325
30
0
0
LINE
5
369
100
AcDbEntity
8
0
100
AcDbLine
10
444.08280327026887
20
-285.73590744360752
30
0
11
444.08280327026887
21
-295
31
0
0
SPLINE
5
370
100
AcDbEntity
8
0
100
AcDbSpline
70
4
71
5
72
21
73
15
74
0
42
0.000000001
43
0.0000000001
44
0.0000000001
40
0
40
0
40
0
40
0
40
0
40
0
40
0.10000000000000001
40
0.20000000000000001
40
0.30000000000000004
40
0.40000000000000002
40
0.5
40
0.59999999999999998
40
0.69999999999999996
40
0.79999999999999993
40
0.89999999999999991
40
1
40
1
40
1
40
1
40
1
40
1
41
1
41
1
41
1
41
1
41
1
41
1
41
1
41
1
41
1
41
1
41
1
41
1
41
1
41
1
41
1
10
368.08645464509664
20
-283.12832344428227
30
0
10
367.73847602382597
20
-283.22231163004511
30
0
10
367.06336599194395
20
-283.422985765568
30
0
10
366.11324215752012
20
-283.76209000589262
30
0
10
364.9735542418768
20
-284.29167066132277
30
0
10
363.77498572702154
20
-285.09132533558375
30
0
10
362.8216849602652
20
-286.04036939494551
30
0
10
362.13215918880428
20
-287.15007536219338
30
0
10
361.71369991640915
20
-288.42488439713418
30
0
10
361.55250730584009
20
-289.85639119896456
30
0
10
361.6278523910421
20
-291.43197002492934
30
0
10
361.86118498003202
20
-292.79783955448158
30
0
10
362.12724321289306
20
-293.87770442317185
30
0
10
362.34442240231135
20
-294.62186028074342
30
0
10
362.46296425498929
20
-295
30
0
0
LINE
5
371
100
AcDbEntity
8
0
100
AcDbLine
10
368.08645464509664
20
-283.12832344428227
30
0
11
370.49396890545961
21
-285.73590744360752
31
0
0
LINE
5
372
100
AcDbEntity
8
0
100
AcDbLine
10
444.08280327026887
20
-295
30
0
11
362.46296425498929
21
-295
31
0
0
LINE
5
373
100
AcDbEntity
8
0
100
AcDbLine
10
444.08280327026887
20
-325
30
0
11
362.46296425498929
21
-325
31
0
0
LINE
5
374
100
AcDbEntity
8
0
100
AcDbLine
10
370.49396890545961
20
-285.73590744360752
30
0
11
437.50064490597435
21
-276.50752349780174
31
0
0
LINE
5
375
100
AcDbEntity
8
0
100
AcDbLine
10
354.08280327026887
20
-325.73590744360757
30
0
11
354.08280327026887
21
-335
31
0
0
LINE
5
376
100
AcDbEntity
8
0
100
AcDbLine
10
341.6251823642454
20
-317.31671188664018
30
0
11
347.50064490597435
21
-316.50752349780174
31
0
0
LINE
5
377
100
AcDbEntity
8
0
100
AcDbLine
10
354.08280327026887
20
-335
30
0
11
272.46296425498929
21
-335
31
0
0
LINE
5
378
100
AcDbEntity
8
0
100
AcDbLine
10
278.08645464509664
20
-245.60871966208919
30
0
11
318.73967697335888
21
-240.00982166158957
31
0
0
LINE
5
379
100
AcDbEntity
8
0
100
AcDbLine
10
318.73967697335888
20
-240.00982166158957
30
0
11
341.6251823642454
21
-317.31671188664018
31
0
0
LINE
5
380
100
AcDbEntity
8
0
100
AcDbLine
10
347.50064490597435
20
-316.50752349780174
30
0
11
354.08280327026887
21
-325.73590744360757
31
0
0
LINE
5
381
100
AcDbEntity
8
0
100
AcDbLine
10
280.49396890545961
20
-325.73590744360757
30
0
11
300.91585041305518
21
-322.54154154137035
31
0
0
LINE
5
382
100
AcDbEntity
8
0
100
AcDbLine
10
278.08645464509664
20
-245.60871966208919
30
0
11
300.91585041305518
21
-322.54154154137035
31
0
0
LINE
5
383
100
AcDbEntity
8
0
100
AcDbLine
10
278.08645464509664
20
-323.12832344428227
30
0
11
280.49396890545961
21
-325.73590744360757
31
0
0
SPLINE
5
384
100
AcDbEntity
8
0
100
AcDbSpline
70
4
71
5
72
21
73
15
74
0
42
0.000000001
43
0.0000000001
44
0.0000000001
40
0
40
0
40
0
40
0
40
0
40
0
40
0.10000000000000001
40
0.20000000000000001
40
0.30000000000000004
40
0.40000000000000002
40
0.5
40
0.59999999999999998
40
0.69999999999999996
40
0.79999999999999993
40
0.89999999999999991
40
1
40
1
40
1
40
1
40
1
40
1
41
1
41
1
41
1
41
1
41
1
41
1
41
1
41
1
41
1
41
1
41
1
41
1
41
1
41
1
41
1
10
278.08645464509664
20
-323.12832344428227
30
0
10
277.73847602386235
20
-323.22231163001231
30
0
10
277.06336599204332
20
-323.42298576547819
30
0
10
276.11324215768502
20
-323.76209000574471
30
0
10
274.97355424207444
20
-324.29167066114792
30
0
10
273.77498572718775
20
-325.09132533544033
30
0
10
272.82168496035263
20
-326.04036939487412
30
0
10
272.13215918878916
20
-327.15007536220708
30
0
10
271.71369991629501
20
-328.42488439722393
30
0
10
271.55250730565575
20
-329.85639119910337
30
0
10
271.62785239083831
20
-331.43197002507748
30
0
10
271.8611849798682
20
-332.79783955459823
30
0
10
272.12724321279626
20
-333.87770442324017
30
0
10
272.34442240227628
20
-334.62186028076809
30
0
10
272.46296425498929
20
-335
30
0
0
LINE
5
385
100
AcDbEntity
8
0
100
AcDbLine
10
257.50064490597435
20
-346.5075234978018
30
0
11
264.08280327026887
21
-355.73590744360757
31
0
0
LINE
5
386
100
AcDbEntity
8
0
100
AcDbLine
10
251.6251823642454
20
-247.31671188664018
30
0
11
257.50064490597435
21
-246.50752349780177
31
0
0
LINE
5
387
100
AcDbEntity
8
0
100
AcDbLine
10
264.08280327026887
20
-365
30
0
11
182.46296425498929
21
-365
31
0
0
LINE
5
388
100
AcDbEntity
8
0
100
AcDbLine
10
251.6251823642454
20
-347.31671188664018
30
0
11
257.50064490597435
21
-346.5075234978018
31
0
0
LINE
5
389
100
AcDbEntity
8
0
100
AcDbLine
10
264.08280327026887
20
-355.73590744360757
30
0
11
264.08280327026887
21
-365
31
0
0
LINE
5
390
100
AcDbEntity
8
0
100
AcDbLine
10
257.50064490597435
20
-246.50752349780177
30
0
11
264.08280327026887
21
-255.73590744360757
31
0
0
LINE
5
391
100
AcDbEntity
8
0
100
AcDbLine
10
264.08280327026887
20
-255.73590744360757
30
0
11
264.08280327026887
21
-265
31
0
0
LINE
5
392
100
AcDbEntity
8
0
100
AcDbLine
10
264.08280327026887
20
-265
30
0
11
182.46296425498929
21
-265
31
0
0
LINE
5
393
100
AcDbEntity
8
0
100
AcDbLine
10
228.73967697335888
20
-270.00982166158957
30
0
11
251.6251823642454
21
-347.31671188664018
31
0
0
SPLINE
5
394
100
AcDbEntity
8
0
100
AcDbSpline
70
4
71
5
72
21
73
15
74
0
42
0.000000001
43
0.0000000001
44
0.0000000001
40
0
40
0
40
0
40
0
40
0
40
0
40
0.10000000000000001
40
0.20000000000000001
40
0.30000000000000004
40
0.40000000000000002
40
0.5
40
0.59999999999999998
40
0.69999999999999996
40
0.79999999999999993
40
0.89999999999999991
40
1
40
1
40
1
40
1
40
1
40
1
41
1
41
1
41
1
41
1
41
1
41
1
41
1
41
1
41
1
41
1
41
1
41
1
41
1
41
1
41
1
10
188.08645464509667
20
-253.1283234442823
30
0
10
187.73847602386778
20
-253.22231163007837
30
0
10
187.06336599205832
20
-253.42298576565861
30
0
10
186.11324215771018
20
-253.76209000604237
30
0
10
184.97355424210494
20
-254.29167066150256
30
0
10
183.77498572721316
20
-255.09132533573677
30
0
10
182.82168496036587
20
-256.04036939502754
30
0
10
182.13215918878686
20
-257.15007536218002
30
0
10
181.71369991627819
20
-258.42488439702487
30
0
10
181.55250730562892
20
-259.85639119878346
30
0
10
181.62785239080901
20
-261.43197002472522
30
0
10
181.86118497984472
20
-262.79783955431571
30
0
10
182.12724321278245
20
-263.87770442307351
30
0
10
182.34442240227128
20
-264.62186028070778
30
0
10
182.46296425498929
20
-265
30
0
0
LINE
5
395
100
AcDbEntity
8
0
100
AcDbLine
10
188.08645464509667
20
-275.60871966208924
30
0
11
228.73967697335888
21
-270.00982166158957
31
0
0
LINE
5
396
100
AcDbEntity
8
0
100
AcDbLine
10
188.08645464509667
20
-353.12832344428227
30
0
11
190.49396890545964
21
-355.73590744360757
31
0
0
LINE
5
397
100
AcDbEntity
8
0
100
AcDbLine
10
188.08645464509667
20
-275.60871966208924
30
0
11
210.91585041305521
21
-352.54154154137035
31
0
0
LINE
5
398
100
AcDbEntity
8
0
100
AcDbLine
10
190.49396890545964
20
-255.73590744360757
30
0
11
210.91585041305521
21
-252.54154154137035
31
0
0
LINE
5
399
100
AcDbEntity
8
0
100
AcDbLine
10
188.08645464509667
20
-175.60871966208921
30
0
11
228.73967697335888
21
-170.00982166158957
31
0
0
LINE
5
400
100
AcDbEntity
8
0
100
AcDbLine
10
228.73967697335888
20
-170.00982166158957
30
0
11
251.6251823642454
21
-247.31671188664018
31
0
0
LINE
5
401
100
AcDbEntity
8
0
100
AcDbLine
10
188.08645464509667
20
-175.60871966208921
30
0
11
210.91585041305521
21
-252.54154154137035
31
0
0
SPLINE
5
402
100
AcDbEntity
8
0
100
AcDbSpline
70
4
71
5
72
21
73
15
74
0
42
0.000000001
43
0.0000000001
44
0.0000000001
40
0
40
0
40
0
40
0
40
0
40
0
40
0.10000000000000001
40
0.20000000000000001
40
0.30000000000000004
40
0.40000000000000002
40
0.5
40
0.59999999999999998
40
0.69999999999999996
40
0.79999999999999993
40
0.89999999999999991
40
1
40
1
40
1
40
1
40
1
40
1
41
1
41
1
41
1
41
1
41
1
41
1
41
1
41
1
41
1
41
1
41
1
41
1
41
1
41
1
41
1
10
188.08645464509667
20
-353.12832344428227
30
0
10
187.73847602386778
20
-353.22231163000959
30
0
10
187.06336599205832
20
-353.42298576547125
30
0
10
186.11324215771018
20
-353.76209000573533
30
0
10
184.97355424210494
20
-354.29167066113973
30
0
10
183.77498572721316
20
-355.09132533543635
30
0
10
182.82168496036587
20
-356.04036939487355
30
0
10
182.13215918878686
20
-357.15007536220782
30
0
10
181.71369991627819
20
-358.42488439722285
30
0
10
181.55250730562892
20
-359.85639119909933
30
0
10
181.62785239080901
20
-361.43197002507043
30
0
10
181.86118497984472
20
-362.79783955459101
30
0
10
182.12724321278245
20
-363.87770442323529
30
0
10
182.34442240227128
20
-364.62186028076616
30
0
10
182.46296425498929
20
-365
30
0
0
LINE
5
403
100
AcDbEntity
8
0
100
AcDbLine
10
188.08645464509667
20
-253.1283234442823
30
0
11
190.49396890545964
21
-255.73590744360757
31
0
0
LINE
5
404
100
AcDbEntity
8
0
100
AcDbLine
10
190.49396890545964
20
-355.73590744360757
30
0
11
210.91585041305521
21
-352.54154154137035
31
0
0
SPLINE
5
405
100
AcDbEntity
8
0
100
AcDbSpline
70
4
71
5
72
21
73
15
74
0
42
0.000000001
43
0.0000000001
44
0.0000000001
40
0
40
0
40
0
40
0
40
0
40
0
40
0.10000000000000001
40
0.20000000000000001
40
0.30000000000000004
40
0.40000000000000002
40
0.5
40
0.59999999999999998
40
0.69999999999999996
40
0.79999999999999993
40
0.89999999999999991
40
1
40
1
40
1
40
1
40
1
40
1
41
1
41
1
41
1
41
1
41
1
41
1
41
1
41
1
41
1
41
1
41
1
41
1
41
1
41
1
41
1
10
368.08645464509664
20
-143.1283234442823
30
0
10
367.73847602382597
20
-143.22231163007439
30
0
10
367.06336599194395
20
-143.42298576564752
30
0
10
366.11324215752012
20
-143.76209000602319
30
0
10
364.9735542418768
20
-144.29167066147687
30
0
10
363.77498572702154
20
-145.09132533571008
30
0
10
362.8216849602652
20
-146.04036939500932
30
0
10
362.13215918880428
20
-147.15007536218127
30
0
10
361.71369991640915
20
-148.42488439705349
30
0
10
361.55250730584009
20
-149.85639119883825
30
0
10
361.6278523910421
20
-151.43197002479332
30
0
10
361.86118498003202
20
-152.79783955437392
30
0
10
362.12724321289306
20
-153.87770442310887
30
0
10
362.34442240231135
20
-154.62186028072074
30
0
10
362.46296425498929
20
-155
30
0
0
LINE
5
406
100
AcDbEntity
8
0
100
AcDbLine
10
444.08280327026887
20
-145.73590744360754
30
0
11
444.08280327026887
21
-155
31
0
0
LINE
5
407
100
AcDbEntity
8
0
100
AcDbLine
10
444.08280327026887
20
-155
30
0
11
362.46296425498929
21
-155
31
0
0
LINE
5
408
100
AcDbEntity
8
0
100
AcDbLine
10
437.50064490597435
20
-136.50752349780174
30
0
11
444.08280327026887
21
-145.73590744360754
31
0
0
LINE
5
409
100
AcDbEntity
8
0
100
AcDbLine
10
370.49396890545961
20
-145.73590744360754
30
0
11
437.50064490597435
21
-136.50752349780174
31
0
0
LINE
5
410
100
AcDbEntity
8
0
100
AcDbLine
10
368.08645464509664
20
-143.1283234442823
30
0
11
370.49396890545961
21
-145.73590744360754
31
0
0
LWPOLYLINE
5
411
100
AcDbEntity
8
0
100
AcDbPolyline
90
6
70
1
43
0.0
10
434.78063518766902
20
-151.34188838196806
10
431.14260747687018
20
-140.42780524957163
42
0.38433399147046438
10
430.55980059893568
20
-140.09782560248811
10
381.44642650315166
20
-151.01190873488446
42
0.89623470084364532
10
381.55489173206092
20
-152.0000022649765
10
434.30629353864367
20
-152.00000226497647
42
0.51191829385257492
0
LWPOLYLINE
5
412
100
AcDbEntity
8
0
100
AcDbPolyline
90
6
70
1
43
0.0
10
381.55489173206092
20
-172.00000226497647
42
-0.89623470084364554
10
381.44642650315166
20
-171.01190873488446
10
430.55980059893568
20
-160.09782560248797
42
-0.38433399147045022
10
431.14260747687018
20
-160.42780524957163
10
434.78063518766908
20
-171.34188838196806
42
-0.51191829385257492
10
434.30629353864367
20
-172.00000226497644
0
LINE
5
413
100
AcDbEntity
8
0
100
AcDbLine
10
444.08280327026887
20
-175
30
0
11
362.46296425498929
21
-175
31
0
0
LINE
5
414
100
AcDbEntity
8
0
100
AcDbLine
10
370.49396890545961
20
-165.73590744360752
30
0
11
437.50064490597435
21
-156.50752349780171
31
0
0
LINE
5
415
100
AcDbEntity
8
0
100
AcDbLine
10
437.50064490597435
20
-156.50752349780171
30
0
11
444.08280327026887
21
-165.73590744360752
31
0
0
LINE
5
416
100
AcDbEntity
8
0
100
AcDbLine
10
444.08280327026887
20
-165.73590744360752
30
0
11
444.08280327026887
21
-175
31
0
0
SPLINE
5
417
100
AcDbEntity
8
0
100
AcDbSpline
70
4
71
5
72
21
73
15
74
0
42
0.000000001
43
0.0000000001
44
0.0000000001
40
0
40
0
40
0
40
0
40
0
40
0
40
0.10000000000000001
40
0.20000000000000001
40
0.30000000000000004
40
0.40000000000000002
40
0.5
40
0.59999999999999998
40
0.69999999999999996
40
0.79999999999999993
40
0.89999999999999991
40
1
40
1
40
1
40
1
40
1
40
1
41
1
41
1
41
1
41
1
41
1
41
1
41
1
41
1
41
1
41
1
41
1
41
1
41
1
41
1
41
1
10
368.08645464509664
20
-163.1283234442823
30
0
10
367.7384760238254
20
-163.22231163005563
30
0
10
367.06336599194236
20
-163.42298576559631
30
0
10
366.11324215751745
20
-163.76209000593886
30
0
10
364.97355424187356
20
-164.29167066137745
30
0
10
363.77498572701836
20
-165.09132533562916
30
0
10
362.82168496026401
20
-166.04036939496933
30
0
10
362.13215918880474
20
-167.15007536218931
30
0
10
361.71369991641035
20
-168.42488439710291
30
0
10
361.55250730584066
20
-169.85639119891323
30
0
10
361.62785239104176
20
-171.43197002487224
30
0
10
361.86118498003145
20
-172.7978395544356
30
0
10
362.12724321289272
20
-173.87770442314491
30
0
10
362.34442240231118
20
-174.62186028073373
30
0
10
362.46296425498929
20
-175
30
0
0
LINE
5
418
100
AcDbEntity
8
0
100
AcDbLine
10
368.08645464509664
20
-163.1283234442823
30
0
11
370.49396890545961
21
-165.73590744360752
31
0
0
ENDSEC
0
SECTION
2
OBJECTS
0
DICTIONARY
5
C
100
AcDbDictionary
3
ACAD_GROUP
350
D
3
ACAD_MLINESTYLE
350
17
0
DICTIONARY
5
D
100
AcDbDictionary
0
DICTIONARY
5
1A
330
C
100
AcDbDictionary
0
DICTIONARY
5
17
100
AcDbDictionary
0
ENDSEC
0
EOF
